<svg height="70" preserveAspectRatio="xMinYMid" version="1.1" xmlns="http://www.w3.org/2000/svg" xmlns:xlink="http://www.w3.org/1999/xlink" viewBox="0 0 192.2 70">
<style type="text/css">
	.st0{fill:#2A3479;}
	.st1{fill:#009FE3;}
	.st2{fill:#1D1D1B;}
</style>
<title>trusttwo_logo</title>
<g>
	<g id="Heart">
		<path class="st0" d="M108.7,0c-1.9-0.1-3.9,0.5-5.5,1.5l0,0c-1.8,1.2-3.1,3-3.8,5.1c2,0.6,3.5,2.5,3.7,2.8h0h0
			c0.2-0.3,1.8-2.2,3.7-2.8l0,0c0.4-0.1,0.7-0.2,1.1-0.2c1.4,0,3,0.8,3,2.7c0,2.4-4.4,4-7.9,7.2c1.7,1.5,3,3.5,3.6,5.7
			c0.7-3.4,11.2-5.2,11.2-13.5C118.1,2.6,113.2,0,108.7,0z"/>
		<path class="st1" d="M103.2,16.3c-3.4-3.2-7.9-4.8-7.9-7.2c0-1.9,1.5-2.7,3-2.7c0.4,0,0.8,0.1,1.1,0.2c0.6-2.1,2-3.9,3.8-5.1
			c-1.6-1-3.5-1.5-5.5-1.5c-4.5,0-9.4,2.6-9.4,8.4c0,8.4,10.6,10.2,11.2,13.5h7.3C106.2,19.8,105,17.8,103.2,16.3z"/>
	</g>
	<g id="Trust">
		<path class="st0" d="M27.1,30.6H27c0,0,0.1-1.3,0.1-2.3v-4.8h-6.7v28.1h7V40.7c0-1.5,0.2-3.1,0.6-4.6c1.3-4.2,4.7-5.9,7.6-5.9
			c0.6,0,1.1,0,1.7,0.1v-6.9c-0.4-0.1-0.8-0.1-1.3-0.1C31.7,23.4,28.4,26.6,27.1,30.6z"/>
		<path class="st0" d="M58.1,36.3c0,5-2.8,9.5-7.9,9.5c-3.5,0-4.3-2.3-4.3-5.7V23.4h-7v18c0,7.6,3.7,10.7,9.7,10.7
			c4.1,0.1,7.9-2.2,9.7-5.8h0.1c-0.1,0.7-0.1,1.3-0.1,2v3.2h6.7V23.4h-7V36.3z"/>
		<path class="st0" d="M74.7,31.2c0-1.8,1.8-2.5,3.6-2.5c2.5,0,4.9,0.8,6.9,2.4l2.6-5.2c0,0-3.1-3.2-9.4-3.2c-6.1,0-10.7,3-10.7,8.3
			c0,9,13.6,8.5,13.6,12.7c0,1.7-1.7,2.5-3.7,2.5c-2.8-0.1-5.6-1.2-7.6-3.1L66.7,48c0,0,3.9,4.1,10.9,4.1c6.7,0,10.7-3.7,10.7-8.4
			C88.4,34.7,74.7,35.2,74.7,31.2z"/>
		<polygon class="st0" points="0,29 6,29 6,51.4 13,51.4 13,29 18.8,29 18.8,23.4 0,23.4 		"/>
		<polygon class="st0" points="88.9,23.4 88.9,29 94.9,29 94.9,51.4 101.9,51.4 101.9,23.4 		"/>
	</g>
	<g id="Two">
		<path class="st1" d="M155.2,23.4l-4.9,18.4c-0.4,1.5-0.6,3-0.6,3h-0.1c0,0-0.2-1.5-0.6-3l-5.2-18.4h-6.2l-5.2,18.4
			c-0.4,1.5-0.7,3-0.7,3h-0.1c-0.1-1-0.3-2-0.6-3l-4.9-18.4h-7.4l8.6,28.1h7.8l4.7-16c0.3-1,0.5-2,0.7-3h0.1c0,0,0.3,1.5,0.7,3
			l4.7,16h7.7l8.5-28H155.2z"/>
		<path class="st1" d="M176.7,22.7c-8.5,0-15.4,6.1-15.4,14.7s6.9,14.7,15.5,14.7c8.6,0,15.4-6,15.4-14.7S185.3,22.7,176.7,22.7z
			 M176.8,46.2c-4.6,0-8.4-3.5-8.4-8.7s3.8-8.8,8.4-8.8s8.3,3.6,8.3,8.7S181.3,46.2,176.8,46.2L176.8,46.2z"/>
		<polygon class="st1" points="104.5,51.4 111.5,51.4 111.5,29 117.5,29 117.5,23.4 104.5,23.4 		"/>
	</g>
	<g id="Strap">
		<path class="st2" d="M26.7,63h1.9v4.6c0,1-0.6,1.4-1.2,1.4c-0.6,0-1.2-0.4-1.2-1.4v-0.3h-1.1v0.4c0,1.3,1,2.3,2.3,2.3
			c1.3,0,2.3-1,2.3-2.3l0,0v-5.5h-3V63z"/>
		<path class="st2" d="M35.9,61.9c-2.2,0-4,1.7-4,3.9c0,0,0,0,0,0.1c-0.1,2.2,1.6,4.1,3.8,4.1s4.1-1.6,4.1-3.8c0-0.1,0-0.2,0-0.3
			C39.9,63.7,38.1,61.9,35.9,61.9C35.9,61.9,35.9,61.9,35.9,61.9z M35.9,69c-1.6,0-2.9-1.4-2.9-3c0,0,0,0,0-0.1
			c0-1.6,1.3-2.9,2.9-2.9c1.6,0,2.9,1.3,2.9,2.9C38.8,67.5,37.6,68.9,35.9,69C36,69,35.9,69,35.9,69z"/>
		<rect x="42.1" y="62.1" class="st2" width="1.1" height="7.8"/>
		<path class="st2" d="M51.1,67.1c0,0.4,0.1,1.1,0.1,1.1l0,0c0,0-0.4-0.7-0.6-1.1l-3.5-5.1H46v7.8h1.1v-5.1c0-0.4-0.1-1.1-0.1-1.1
			l0,0c0,0,0.4,0.7,0.6,1.1l3.5,5.1h1.1v-7.8h-1.1V67.1z"/>
		<polygon class="st2" points="56.1,66.4 58.9,66.4 58.9,65.4 56.1,65.4 56.1,63 59.5,63 59.5,62.1 55,62.1 55,69.8 59.7,69.8 
			59.7,68.9 56.1,68.9 		"/>
		<path class="st2" d="M64.5,62.1h-2.6v7.8h2.6c2.4,0,3.9-1.4,3.9-3.9C68.5,63.5,66.9,62.1,64.5,62.1z M64.4,68.9H63V63h1.4
			c1.7,0,2.9,1,2.9,2.9S66.2,68.9,64.4,68.9L64.4,68.9z"/>
		<path class="st2" d="M79.2,67.1c-0.1,1.1-1,1.9-2.1,1.8c-1-0.1-1.7-0.8-1.8-1.8v-5h-1.1v5c0,1.7,1.2,2.9,3.1,2.9s3.1-1.2,3.1-2.9
			v-5h-1.1V67.1z"/>
		<path class="st2" d="M85.7,62.1h-2.8v7.8H84V67h1.7c1.3,0.1,2.4-0.9,2.4-2.2c0-0.1,0-0.1,0-0.2c0.1-1.3-0.9-2.4-2.2-2.4
			C85.9,62.1,85.8,62.1,85.7,62.1z M85.6,66H84v-3h1.6c0.8-0.1,1.4,0.5,1.5,1.2c0,0.1,0,0.2,0,0.2c0.1,0.8-0.5,1.5-1.3,1.5
			C85.7,66,85.6,66,85.6,66L85.6,66z"/>
		<path class="st2" d="M97.7,65.7L97.7,65.7c0.6-0.3,1-1,1-1.7c0-1.3-0.9-2-2.2-2h-2.7v7.8h2.8c1.4,0,2.5-0.7,2.5-2.2
			C99.1,66.8,98.5,66,97.7,65.7z M94.8,63h1.6c0.6-0.1,1.1,0.4,1.2,1c0,0.1,0,0.1,0,0.2c0,0.6-0.5,1.1-1.1,1.2c0,0,0,0-0.1,0h-1.6
			L94.8,63z M96.6,68.9h-1.7v-2.7h1.7c0.7,0,1.3,0.5,1.3,1.2c0,0.1,0,0.1,0,0.2c0,0.7-0.5,1.3-1.2,1.3
			C96.7,68.9,96.6,68.9,96.6,68.9L96.6,68.9z"/>
		<path class="st2" d="M104.8,61.9c-2.2,0-4,1.7-4,3.9c0,0,0,0,0,0.1c-0.1,2.2,1.6,4.1,3.8,4.1c2.2,0.1,4.1-1.6,4.1-3.8
			c0-0.1,0-0.2,0-0.3C108.8,63.7,107,61.9,104.8,61.9C104.9,61.9,104.8,61.9,104.8,61.9z M104.8,69c-1.6,0-2.9-1.4-2.9-3
			c0,0,0,0,0-0.1c0-1.6,1.3-2.9,2.9-2.9s2.9,1.3,2.9,2.9c0,0,0,0,0,0C107.8,67.5,106.5,68.9,104.8,69C104.9,69,104.8,69,104.8,69z"
			/>
		<path class="st2" d="M114.8,66.5L114.8,66.5c1.2-0.5,1.7-1.9,1.2-3c-0.2-0.5-0.6-0.9-1.1-1.2c-0.5-0.1-1-0.2-1.4-0.2h-2.4v7.8h1.1
			v-3.1h1.7l1.6,3.1h1.2l-1.7-3C115,66.7,114.9,66.6,114.8,66.5z M113.7,65.8h-1.6V63h1.3c0.4,0,0.7,0,1.1,0.2
			c0.4,0.2,0.7,0.7,0.6,1.2c0.1,0.7-0.4,1.3-1.1,1.4C113.9,65.8,113.8,65.8,113.7,65.8L113.7,65.8z"/>
		<path class="st2" d="M122.5,66.5L122.5,66.5c1.2-0.5,1.7-1.9,1.2-3c-0.2-0.5-0.6-0.9-1.1-1.2c-0.5-0.1-1-0.2-1.4-0.2h-2.4v7.8h1.1
			v-3.1h1.7l1.6,3.1h1.2l-1.7-3C122.7,66.7,122.6,66.6,122.5,66.5z M121.4,65.8h-1.6V63h1.3c0.4,0,0.7,0,1.1,0.2
			c0.4,0.2,0.7,0.7,0.6,1.2c0.1,0.7-0.4,1.3-1.1,1.4C121.6,65.8,121.5,65.8,121.4,65.8L121.4,65.8z"/>
		<path class="st2" d="M129.9,61.9c-2.2,0-4,1.7-4,3.9c0,0,0,0,0,0.1c-0.1,2.2,1.6,4.1,3.8,4.1c2.2,0.1,4.1-1.6,4.1-3.8
			c0-0.1,0-0.2,0-0.3C133.9,63.7,132.2,61.9,129.9,61.9C130,61.9,130,61.9,129.9,61.9z M129.9,69c-1.6,0-2.9-1.4-2.9-3
			c0,0,0,0,0-0.1c0-1.6,1.3-2.9,2.9-2.9s2.9,1.3,2.9,2.9c0,0,0,0,0,0C132.9,67.5,131.6,68.9,129.9,69C130,69,130,69,129.9,69z"/>
		<path class="st2" d="M142.6,67.8c-0.1,0.3-0.1,0.5-0.1,0.8l0,0c0-0.3-0.1-0.6-0.2-0.8l-1.5-5.7h-1l-1.5,5.7
			c-0.1,0.4-0.2,0.8-0.2,0.8l0,0c0-0.3-0.1-0.6-0.1-0.8l-1.4-5.7h-1.1l2,7.8h1.3l1.3-5.1c0.1-0.5,0.2-1.1,0.2-1.1l0,0
			c0,0,0.1,0.6,0.2,1.1l1.3,5.1h1.3l2-7.8H144L142.6,67.8z"/>
		<rect x="147.2" y="62.1" class="st2" width="1.1" height="7.8"/>
		<path class="st2" d="M156.2,67.1c0,0.4,0.1,1.1,0.1,1.1l0,0c0,0-0.4-0.7-0.6-1.1l-3.5-5.1h-1.1v7.8h1.1v-5.1
			c0-0.4-0.1-1.1-0.1-1.1l0,0c0,0,0.4,0.7,0.7,1.1l3.5,5.1h1.1v-7.8h-1.1V67.1z"/>
		<path class="st2" d="M164.5,65.9v0.9h1.3V68c-0.6,0.6-1.4,0.9-2.2,1c-1.7-0.1-2.9-1.5-2.9-3.2c0.1-1.6,1.4-2.8,2.9-2.9
			c0.8,0,1.6,0.3,2.2,0.8l0.6-0.8c-0.8-0.6-1.8-1-2.8-0.9c-2.2,0-3.9,1.8-3.9,3.9c0,0,0,0,0,0.1c-0.1,2.1,1.5,3.9,3.7,4
			c0.1,0,0.1,0,0.2,0c0.9,0,1.7-0.3,2.4-0.9l0,0c0,0,0,0.2,0,0.3v0.5h1v-3.9L164.5,65.9z"/>
	</g>
</g>
</svg>
